<svg width="24" height="24" viewBox="0 0 24 24" fill="none" xmlns="http://www.w3.org/2000/svg">
    <path d="M9 22H15C20 22 22 20 22 15V9C22 4 20 2 15 2H9C4 2 2 4 2 9V15C2 20 4 22 9 22Z" stroke="#D00000" stroke-width="1.5" stroke-linecap="round" stroke-linejoin="round"/>
    <path d="M17.8996 9.04994C15.7196 8.82994 13.5196 8.71994 11.3296 8.71994C10.0296 8.71994 8.72961 8.78994 7.43961 8.91994L6.09961 9.04994" stroke="#D00000" stroke-width="1.5" stroke-linecap="round" stroke-linejoin="round"/>
    <path d="M9.70898 8.38994L9.84898 7.52994C9.94898 6.90994 10.029 6.43994 11.139 6.43994H12.859C13.969 6.43994 14.049 6.92994 14.149 7.52994L14.289 8.37994" stroke="#D00000" stroke-width="1.5" stroke-linecap="round" stroke-linejoin="round"/>
    <path d="M16.49 9.12988L16.06 15.7299C15.99 16.7599 15.93 17.5599 14.1 17.5599H9.89C8.06 17.5599 7.99999 16.7599 7.92999 15.7299L7.5 9.12988" stroke="#D00000" stroke-width="1.5" stroke-linecap="round" stroke-linejoin="round"/>
</svg>
