<svg width="16" height="16" viewBox="0 0 16 16" fill="none" xmlns="http://www.w3.org/2000/svg">
    <g clip-path="url(#clip0_461_392)">
        <path d="M2 4.00024H3.33333H14" stroke="#FF0000" stroke-width="1.5" stroke-linecap="round" stroke-linejoin="round"/>
        <path d="M12.6667 4.00016V13.3335C12.6667 13.6871 12.5262 14.0263 12.2762 14.2763C12.0261 14.5264 11.687 14.6668 11.3333 14.6668H4.66668C4.31305 14.6668 3.97392 14.5264 3.72387 14.2763C3.47382 14.0263 3.33334 13.6871 3.33334 13.3335V4.00016M5.33334 4.00016V2.66683C5.33334 2.31321 5.47382 1.97407 5.72387 1.72402C5.97392 1.47397 6.31305 1.3335 6.66668 1.3335H9.33334C9.68697 1.3335 10.0261 1.47397 10.2762 1.72402C10.5262 1.97407 10.6667 2.31321 10.6667 2.66683V4.00016" stroke="#FF0000" stroke-width="1.5" stroke-linecap="round" stroke-linejoin="round"/>
        <path d="M6.66666 7.3335V11.3335" stroke="#FF0000" stroke-width="1.5" stroke-linecap="round" stroke-linejoin="round"/>
        <path d="M9.33334 7.3335V11.3335" stroke="#FF0000" stroke-width="1.5" stroke-linecap="round" stroke-linejoin="round"/>
    </g>
    <defs>
        <clipPath id="clip0_461_392">
            <rect width="16" height="16" fill="white" transform="translate(0 0.000244141)"/>
        </clipPath>
    </defs>
</svg>
