<svg width="15" height="16" viewBox="0 0 15 16" fill="none" xmlns="http://www.w3.org/2000/svg">
    <path d="M1 3.79999H2.4H13.6" stroke="black" stroke-width="1.2" stroke-linecap="round" stroke-linejoin="round"/>
    <path d="M12.2 3.8V13.6C12.2 13.9713 12.0525 14.3274 11.7899 14.5899C11.5274 14.8525 11.1713 15 10.8 15H3.8C3.4287 15 3.0726 14.8525 2.81005 14.5899C2.5475 14.3274 2.4 13.9713 2.4 13.6V3.8M4.5 3.8V2.4C4.5 2.0287 4.6475 1.6726 4.91005 1.41005C5.1726 1.1475 5.5287 1 5.9 1H8.7C9.0713 1 9.4274 1.1475 9.68995 1.41005C9.9525 1.6726 10.1 2.0287 10.1 2.4V3.8" stroke="black" stroke-width="1.2" stroke-linecap="round" stroke-linejoin="round"/>
</svg>
