<svg width="17" height="18" viewBox="0 0 17 18" fill="none" xmlns="http://www.w3.org/2000/svg">
    <path d="M13.0003 5.8C14.3257 5.8 15.4002 4.72548 15.4002 3.4C15.4002 2.07452 14.3257 1 13.0003 1C11.6748 1 10.6003 2.07452 10.6003 3.4C10.6003 4.72548 11.6748 5.8 13.0003 5.8Z" stroke="#69D825" stroke-width="1.5" stroke-linecap="round" stroke-linejoin="round"/>
    <path d="M3.4 11.4001C4.72548 11.4001 5.8 10.3256 5.8 9.0001C5.8 7.67461 4.72548 6.6001 3.4 6.6001C2.07452 6.6001 1 7.67461 1 9.0001C1 10.3256 2.07452 11.4001 3.4 11.4001Z" stroke="#69D825" stroke-width="1.5" stroke-linecap="round" stroke-linejoin="round"/>
    <path d="M13.0003 17C14.3257 17 15.4002 15.9254 15.4002 14.6C15.4002 13.2745 14.3257 12.2 13.0003 12.2C11.6748 12.2 10.6003 13.2745 10.6003 14.6C10.6003 15.9254 11.6748 17 13.0003 17Z" stroke="#69D825" stroke-width="1.5" stroke-linecap="round" stroke-linejoin="round"/>
    <path d="M5.47202 10.208L10.936 13.392" stroke="#69D825" stroke-width="1.5" stroke-linecap="round" stroke-linejoin="round"/>
    <path d="M10.928 4.60791L5.47202 7.79191" stroke="#69D825" stroke-width="1.5" stroke-linecap="round" stroke-linejoin="round"/>
</svg>
