<svg width="24" height="24" viewBox="0 0 24 24" fill="none" xmlns="http://www.w3.org/2000/svg">
    <path d="M18 7.16C17.94 7.15 17.87 7.15 17.81 7.16C16.43 7.11 15.33 5.98 15.33 4.58C15.33 3.15 16.48 2 17.91 2C19.34 2 20.49 3.16 20.49 4.58C20.48 5.98 19.38 7.11 18 7.16Z" stroke="#69D825" stroke-width="1.5" stroke-linecap="round" stroke-linejoin="round"/>
    <path d="M16.9704 14.4402C18.3404 14.6702 19.8504 14.4302 20.9104 13.7202C22.3204 12.7802 22.3204 11.2402 20.9104 10.3002C19.8404 9.59016 18.3104 9.35016 16.9404 9.59016" stroke="#69D825" stroke-width="1.5" stroke-linecap="round" stroke-linejoin="round"/>
    <path d="M5.97044 7.16C6.03044 7.15 6.10044 7.15 6.16044 7.16C7.54044 7.11 8.64044 5.98 8.64044 4.58C8.64044 3.15 7.49044 2 6.06044 2C4.63044 2 3.48044 3.16 3.48044 4.58C3.49044 5.98 4.59044 7.11 5.97044 7.16Z" stroke="#69D825" stroke-width="1.5" stroke-linecap="round" stroke-linejoin="round"/>
    <path d="M7.00043 14.44C5.63043 14.67 4.12043 14.43 3.06043 13.72C1.65043 12.78 1.65043 11.24 3.06043 10.3C4.13043 9.59001 5.66043 9.35 7.03043 9.59" stroke="#69D825" stroke-width="1.5" stroke-linecap="round" stroke-linejoin="round"/>
    <path d="M12.0001 14.6297C11.9401 14.6197 11.8701 14.6197 11.8101 14.6297C10.4301 14.5797 9.33008 13.4497 9.33008 12.0497C9.33008 10.6197 10.4801 9.46973 11.9101 9.46973C13.3401 9.46973 14.4901 10.6297 14.4901 12.0497C14.4801 13.4497 13.3801 14.5897 12.0001 14.6297Z" stroke="#69D825" stroke-width="1.5" stroke-linecap="round" stroke-linejoin="round"/>
    <path d="M9.08973 17.7797C7.67973 18.7197 7.67973 20.2597 9.08973 21.1997C10.6897 22.2697 13.3097 22.2697 14.9097 21.1997C16.3197 20.2597 16.3197 18.7197 14.9097 17.7797C13.3197 16.7197 10.6897 16.7197 9.08973 17.7797Z" stroke="#69D825" stroke-width="1.5" stroke-linecap="round" stroke-linejoin="round"/>
</svg>
