<svg width="15" height="16" viewBox="0 0 15 16" fill="none" xmlns="http://www.w3.org/2000/svg">
    <path d="M11.5 5.2C12.6598 5.2 13.6 4.2598 13.6 3.1C13.6 1.9402 12.6598 1 11.5 1C10.3402 1 9.4 1.9402 9.4 3.1C9.4 4.2598 10.3402 5.2 11.5 5.2Z" stroke="black" stroke-width="1.2" stroke-linecap="round" stroke-linejoin="round"/>
    <path d="M3.1 10.1C4.2598 10.1 5.2 9.15982 5.2 8.00002C5.2 6.84023 4.2598 5.90002 3.1 5.90002C1.9402 5.90002 1 6.84023 1 8.00002C1 9.15982 1.9402 10.1 3.1 10.1Z" stroke="black" stroke-width="1.2" stroke-linecap="round" stroke-linejoin="round"/>
    <path d="M11.5 15C12.6598 15 13.6 14.0598 13.6 12.9C13.6 11.7402 12.6598 10.8 11.5 10.8C10.3402 10.8 9.4 11.7402 9.4 12.9C9.4 14.0598 10.3402 15 11.5 15Z" stroke="black" stroke-width="1.2" stroke-linecap="round" stroke-linejoin="round"/>
    <path d="M4.91302 9.05701L9.69402 11.843" stroke="black" stroke-width="1.2" stroke-linecap="round" stroke-linejoin="round"/>
    <path d="M9.68702 4.15698L4.91302 6.94298" stroke="black" stroke-width="1.2" stroke-linecap="round" stroke-linejoin="round"/>
</svg>
