<svg width="31" height="24" viewBox="0 0 31 24" fill="none" xmlns="http://www.w3.org/2000/svg">
    <path d="M6.04775 1.23712e-08H24.2808C24.4826 -2.80561e-05 24.6816 0.0477066 24.8615 0.139302C25.0413 0.230897 25.1969 0.363753 25.3156 0.527011L30.2058 7.25024C30.2928 7.36986 30.3356 7.51592 30.3269 7.66355C30.3183 7.81118 30.2588 7.95125 30.1585 8.05994L15.6337 23.7948C15.5738 23.8595 15.5012 23.9111 15.4204 23.9465C15.3396 23.9818 15.2524 24 15.1643 24C15.0761 24 14.9889 23.9818 14.9081 23.9465C14.8273 23.9111 14.7547 23.8595 14.6948 23.7948L0.170041 8.06122C0.0694373 7.95245 0.00971903 7.81212 0.00108692 7.66421C-0.0075452 7.51629 0.0354444 7.36997 0.122713 7.25024L5.01291 0.527011C5.13159 0.363753 5.28722 0.230897 5.46708 0.139302C5.64693 0.0477066 5.84591 -2.80561e-05 6.04775 1.23712e-08Z" fill="#FF734A"/>
    <path d="M8.62149 11.5124L6.48019 6.13993H7.7005L8.82103 9.04872C8.88243 9.20734 8.9336 9.34804 8.97453 9.47084C9.02058 9.58853 9.05896 9.70109 9.08966 9.80854C9.12547 9.91087 9.15873 10.0132 9.18943 10.1155C9.22013 10.2128 9.25083 10.3202 9.28153 10.4379L9.05896 10.4456C9.09989 10.2869 9.14082 10.1411 9.18176 10.0081C9.22269 9.86994 9.26874 9.72667 9.3199 9.57829C9.37107 9.42991 9.43503 9.25339 9.51178 9.04872L10.5709 6.13993H11.7836L9.6269 11.5124H8.62149Z" fill="white"/>
    <path d="M12.0543 11.5968C11.8548 11.5968 11.7013 11.5405 11.5938 11.4279C11.4864 11.3154 11.4327 11.1542 11.4327 10.9444C11.4327 10.7551 11.4889 10.6016 11.6015 10.4839C11.7192 10.3611 11.8701 10.2997 12.0543 10.2997C12.2488 10.2997 12.3997 10.356 12.5072 10.4686C12.6146 10.5811 12.6683 10.7398 12.6683 10.9444C12.6683 11.1389 12.612 11.2975 12.4995 11.4203C12.3869 11.538 12.2385 11.5968 12.0543 11.5968Z" fill="white"/>
    <path d="M13.5592 11.5124V10.5223H14.4571V7.13H13.5592V6.13993H16.5063V7.13H15.6084V10.5223H16.5063V11.5124H13.5592Z" fill="white"/>
    <path d="M18.0204 11.5968C17.8208 11.5968 17.6673 11.5405 17.5599 11.4279C17.4524 11.3154 17.3987 11.1542 17.3987 10.9444C17.3987 10.7551 17.455 10.6016 17.5676 10.4839C17.6852 10.3611 17.8362 10.2997 18.0204 10.2997C18.2148 10.2997 18.3657 10.356 18.4732 10.4686C18.5806 10.5811 18.6344 10.7398 18.6344 10.9444C18.6344 11.1389 18.5781 11.2975 18.4655 11.4203C18.353 11.538 18.2046 11.5968 18.0204 11.5968Z" fill="white"/>
    <path d="M19.6633 11.5124V6.13993H21.9428C22.26 6.13993 22.5466 6.21668 22.8024 6.37018C23.0633 6.51856 23.268 6.72322 23.4164 6.98417C23.5699 7.24512 23.6466 7.53932 23.6466 7.86679C23.6466 8.19937 23.5699 8.49869 23.4164 8.76475C23.268 9.03082 23.0633 9.24315 22.8024 9.40177C22.5466 9.55527 22.26 9.63202 21.9428 9.63202H20.8146V11.5124H19.6633ZM20.7992 8.5959H21.8123C21.9351 8.5959 22.0451 8.5652 22.1423 8.50381C22.2396 8.43729 22.3163 8.35031 22.3726 8.24286C22.434 8.13541 22.4647 8.01261 22.4647 7.87446C22.4647 7.73631 22.434 7.61607 22.3726 7.51374C22.3163 7.40629 22.2396 7.32443 22.1423 7.26814C22.0451 7.20674 21.9351 7.17604 21.8123 7.17604H20.7992V8.5959Z" fill="white"/>
</svg>
